<svg width="170" height="85" viewBox="0 0 170 85" fill="none" xmlns="http://www.w3.org/2000/svg">
<rect width="170" height="85" rx="10" fill="#C5D5E6"/>
<path fill-rule="evenodd" clip-rule="evenodd" d="M76.0167 20H89.4513C93.3905 20 97.9764 22.9049 96.6114 29.2986C95.4035 34.9468 90.8981 38.2686 85.5107 38.2686H79.8785L77.9476 47.3225H70.0645L76.0167 20ZM81.0046 33.037H83.5737L84.8398 27.4301H88.7006C88.8303 27.4301 88.9462 27.4551 89.0623 27.4802L89.0623 27.4802C89.1116 27.4908 89.1609 27.5015 89.2113 27.5102C88.8816 26.3518 87.8787 25.563 86.5542 25.563H82.6931L81.0046 33.037ZM89.2092 29.2993C88.7391 31.3277 86.8116 32.9464 84.849 33.0224L85.7732 28.9236H89.2733C89.2664 28.9646 89.2608 29.0051 89.2553 29.0456C89.2438 29.1288 89.2324 29.212 89.2092 29.2993ZM98.3872 25.9482C98.9998 27.3224 99.2095 29.0487 98.7574 31.1661C97.5499 36.8136 93.0445 40.1355 87.6574 40.1355H82.0252L80.0947 49.1883H73.4715L73.1442 50.6818H81.0281L82.9587 41.629H88.5905C93.9768 41.629 98.483 38.3072 99.6908 32.6597C100.326 29.6828 99.6649 27.472 98.3872 25.9482Z" fill="white"/>
<path d="M69.9 63.6H67.044V72H67.68V68.796H69.9C71.412 68.796 72.516 67.68 72.516 66.204C72.516 64.716 71.412 63.6 69.9 63.6ZM69.9 68.196H67.68V64.2H69.9C71.052 64.2 71.88 65.04 71.88 66.204C71.88 67.356 71.052 68.196 69.9 68.196ZM78.7665 66V67.356C78.2625 66.456 77.3385 65.868 76.1865 65.868C74.4825 65.868 73.0785 67.224 73.0785 69C73.0785 70.776 74.4825 72.132 76.1865 72.132C77.3385 72.132 78.2625 71.544 78.7665 70.644V72H79.3785V66H78.7665ZM76.2345 71.556C74.8065 71.556 73.6905 70.428 73.6905 69C73.6905 67.572 74.8065 66.444 76.2345 66.444C77.6625 66.444 78.7665 67.572 78.7665 69C78.7665 70.428 77.6625 71.556 76.2345 71.556ZM85.6129 66L83.5249 71.34L81.1009 66H80.4529L83.2129 72.108L83.0809 72.432C82.7089 73.308 82.0969 73.908 81.2929 73.836V74.4C82.3249 74.484 83.2129 73.704 83.6689 72.552L86.2609 66H85.6129ZM90.3141 63.6H87.4581V72H88.0941V68.796H90.3141C91.8261 68.796 92.9301 67.68 92.9301 66.204C92.9301 64.716 91.8261 63.6 90.3141 63.6ZM90.3141 68.196H88.0941V64.2H90.3141C91.4661 64.2 92.2941 65.04 92.2941 66.204C92.2941 67.356 91.4661 68.196 90.3141 68.196ZM99.1806 66V67.356C98.6766 66.456 97.7526 65.868 96.6006 65.868C94.8966 65.868 93.4926 67.224 93.4926 69C93.4926 70.776 94.8966 72.132 96.6006 72.132C97.7526 72.132 98.6766 71.544 99.1806 70.644V72H99.7926V66H99.1806ZM96.6486 71.556C95.2206 71.556 94.1046 70.428 94.1046 69C94.1046 67.572 95.2206 66.444 96.6486 66.444C98.0766 66.444 99.1806 67.572 99.1806 69C99.1806 70.428 98.0766 71.556 96.6486 71.556ZM101.635 72H102.235V63.24H101.635V72Z" fill="white"/>
</svg>
