<svg width="170" height="85" viewBox="0 0 170 85" fill="none" xmlns="http://www.w3.org/2000/svg">
<rect width="170" height="85" rx="10" fill="#9C5D9A"/>
<path d="M65.044 63.6H59.044V72H59.68V64.2H64.396V72H65.044V63.6ZM70.1782 65.868C69.0142 65.868 68.0902 66.468 67.5982 67.392V66H66.9982V74.4H67.5982V70.608C68.0902 71.532 69.0142 72.132 70.1782 72.132C71.8942 72.132 73.2862 70.776 73.2862 69C73.2862 67.224 71.8942 65.868 70.1782 65.868ZM70.1422 71.556C68.7142 71.556 67.5982 70.428 67.5982 69C67.5982 67.572 68.7142 66.444 70.1422 66.444C71.5702 66.444 72.6862 67.572 72.6862 69C72.6862 70.428 71.5702 71.556 70.1422 71.556ZM79.1606 66L75.3326 70.956V66H74.7326V72H75.2606L79.0766 67.044V72H79.6886V66H79.1606ZM85.2372 68.904C85.7532 68.652 86.0052 68.16 86.0052 67.572C86.0052 66.696 85.3932 66 84.2172 66H81.5412V72H84.4452C85.6932 72 86.2932 71.256 86.2932 70.344C86.2932 69.66 85.9332 69.132 85.2372 68.904ZM84.2172 66.588C84.9732 66.588 85.3932 66.972 85.3932 67.608C85.3932 68.28 84.9852 68.664 84.2172 68.664H82.1412V66.588H84.2172ZM84.4452 71.412H82.1412V69.252H84.4452C85.2372 69.252 85.6932 69.66 85.6932 70.32C85.6932 71.004 85.2492 71.412 84.4452 71.412ZM92.9032 66V67.356C92.3992 66.456 91.4752 65.868 90.3232 65.868C88.6192 65.868 87.2152 67.224 87.2152 69C87.2152 70.776 88.6192 72.132 90.3232 72.132C91.4752 72.132 92.3992 71.544 92.9032 70.644V72H93.5152V66H92.9032ZM90.3712 71.556C88.9432 71.556 87.8272 70.428 87.8272 69C87.8272 67.572 88.9432 66.444 90.3712 66.444C91.7992 66.444 92.9032 67.572 92.9032 69C92.9032 70.428 91.7992 71.556 90.3712 71.556ZM99.5576 66H94.5896V66.588H96.7736V72H97.3736V66.588H99.5576V66ZM100.235 72H105.515V71.388H101.147L103.751 68.712C104.603 67.848 105.323 66.924 105.323 65.88C105.323 64.32 104.111 63.468 102.827 63.468C101.735 63.468 100.787 63.996 100.283 65.028L100.823 65.352C101.219 64.512 101.915 64.08 102.827 64.08C103.847 64.08 104.675 64.728 104.675 65.88C104.675 66.708 104.051 67.5 103.319 68.256L100.235 71.424V72ZM112.389 69.636H111.309V66.996H110.673V69.636H106.857L110.037 63.6H109.34L106.149 69.636V70.236H110.673V72H111.309V70.236H112.389V69.636Z" fill="white"/>
<path d="M54.62 24.4H45.08V37H47.96V27.172H51.74V37H54.62V24.4ZM62.079 27.748C60.873 27.748 59.991 28.162 59.397 28.846V28H56.697V40.6H59.397V36.154C59.991 36.838 60.873 37.252 62.079 37.252C64.437 37.252 66.381 35.182 66.381 32.5C66.381 29.818 64.437 27.748 62.079 27.748ZM61.539 34.696C60.297 34.696 59.397 33.85 59.397 32.5C59.397 31.15 60.297 30.304 61.539 30.304C62.781 30.304 63.681 31.15 63.681 32.5C63.681 33.85 62.781 34.696 61.539 34.696ZM74.3919 28L70.5399 32.5V28H67.9119V37H69.8919L73.7439 32.5V37H76.3719V28H74.3919ZM85.0673 32.392C85.6253 31.978 85.9133 31.348 85.9133 30.574C85.9133 29.08 84.8513 28 82.8533 28H78.3533V37H83.2133C85.2113 37 86.2733 35.92 86.2733 34.426C86.2733 33.508 85.8413 32.806 85.0673 32.392ZM82.5653 30.16C83.0513 30.16 83.3573 30.358 83.3573 30.808C83.3573 31.24 83.0513 31.42 82.5653 31.42H80.8733V30.16H82.5653ZM82.8533 34.768H80.8733V33.472H82.8533C83.3213 33.472 83.6453 33.67 83.6453 34.102C83.6453 34.552 83.3213 34.768 82.8533 34.768ZM94.151 28V28.846C93.557 28.162 92.675 27.748 91.469 27.748C89.111 27.748 87.167 29.818 87.167 32.5C87.167 35.182 89.111 37.252 91.469 37.252C92.675 37.252 93.557 36.838 94.151 36.154V37H96.851V28H94.151ZM92.009 34.696C90.767 34.696 89.867 33.85 89.867 32.5C89.867 31.15 90.767 30.304 92.009 30.304C93.251 30.304 94.151 31.15 94.151 32.5C94.151 33.85 93.251 34.696 92.009 34.696ZM106.122 28H98.0218V30.592H100.74V37H103.44V30.592H106.122V28ZM106.693 37H115.261V34.228H111.031L113.119 32.122C114.271 30.97 115.081 29.674 115.081 28.162C115.081 25.624 113.065 24.148 110.815 24.148C109.069 24.148 107.377 25.03 106.567 26.902L108.997 28.324C109.339 27.532 109.969 26.956 110.851 26.956C111.697 26.956 112.201 27.496 112.201 28.288C112.201 29.026 111.661 29.764 110.923 30.52L106.693 34.912V37ZM125.979 32.32H124.719V29.62H121.803V32.32H119.175L123.189 24.4H120.093L116.079 32.32V34.984H121.803V37H124.719V34.984H125.979V32.32Z" fill="white"/>
</svg>
