<svg width="170" height="85" viewBox="0 0 170 85" fill="none" xmlns="http://www.w3.org/2000/svg">
<rect width="170" height="85" rx="10" fill="#C5D5E6"/>
<path fill-rule="evenodd" clip-rule="evenodd" d="M72.6842 48.9681H93.2855C93.5998 48.9681 93.8545 48.7113 93.8546 48.3945V12.6944C93.8546 11.2086 92.6555 10 91.1816 10H74.7882C73.3142 10 72.1152 11.2086 72.1152 12.6944V48.3945C72.1152 48.7113 72.3699 48.9681 72.6842 48.9681ZM92.7165 47.821H73.2532V36.7964H92.7165V47.821ZM73.2532 35.6496H92.7165V12.6944C92.7165 11.8412 92.0279 11.1471 91.1815 11.1471H74.7882C73.9418 11.1471 73.2532 11.8412 73.2532 12.6944V35.6496ZM81.1079 34.3213H81.4049C81.7192 34.3213 81.9739 34.0645 81.9739 33.7478C81.9739 33.431 81.7192 33.1742 81.4049 33.1742H81.1079C80.7937 33.1742 80.539 33.431 80.539 33.7478C80.539 34.0645 80.7937 34.3213 81.1079 34.3213ZM78.9665 34.3213H78.6695C78.3553 34.3213 78.1006 34.0645 78.1006 33.7478C78.1006 33.431 78.3553 33.1742 78.6695 33.1742H78.9665C79.2808 33.1742 79.5355 33.431 79.5355 33.7478C79.5355 34.0645 79.2808 34.3213 78.9665 34.3213ZM76.2313 34.3213H76.5283C76.8426 34.3213 77.0973 34.0645 77.0973 33.7478C77.0973 33.431 76.8426 33.1742 76.5283 33.1742H76.2313C75.9171 33.1742 75.6624 33.431 75.6624 33.7478C75.6624 34.0645 75.9171 34.3213 76.2313 34.3213ZM89.7386 33.5187H85.3361C85.0218 33.5187 84.7671 33.262 84.7671 32.9452V30.086C84.7671 29.7692 85.0218 29.5124 85.3361 29.5124H89.7386C90.0528 29.5124 90.3075 29.7692 90.3075 30.086V32.9452C90.3075 33.2618 90.0528 33.5187 89.7386 33.5187ZM89.1696 32.3717H85.9051V30.6595H89.1696V32.3717ZM81.4049 32.4904H81.1079C80.7937 32.4904 80.539 32.2336 80.539 31.9169C80.539 31.6001 80.7937 31.3433 81.1079 31.3433H81.4049C81.7192 31.3433 81.9739 31.6001 81.9739 31.9169C81.9739 32.2336 81.7192 32.4904 81.4049 32.4904ZM78.6695 32.4904H78.9665C79.2808 32.4904 79.5355 32.2336 79.5355 31.9169C79.5355 31.6001 79.2808 31.3433 78.9665 31.3433H78.6695C78.3553 31.3433 78.1006 31.6001 78.1006 31.9169C78.1006 32.2336 78.3553 32.4904 78.6695 32.4904ZM76.5283 32.4904H76.2313C75.9171 32.4904 75.6624 32.2336 75.6624 31.9169C75.6624 31.6001 75.9171 31.3433 76.2313 31.3433H76.5283C76.8426 31.3433 77.0973 31.6001 77.0973 31.9169C77.0973 32.2336 76.8426 32.4904 76.5283 32.4904ZM81.1079 30.6595H81.4049C81.7192 30.6595 81.9739 30.4027 81.9739 30.086C81.9739 29.7692 81.7192 29.5124 81.4049 29.5124H81.1079C80.7937 29.5124 80.539 29.7692 80.539 30.086C80.539 30.4027 80.7937 30.6595 81.1079 30.6595ZM78.9665 30.6595H78.6695C78.3553 30.6595 78.1006 30.4027 78.1006 30.086C78.1006 29.7692 78.3553 29.5124 78.6695 29.5124H78.9665C79.2808 29.5124 79.5355 29.7692 79.5355 30.086C79.5355 30.4027 79.2808 30.6595 78.9665 30.6595ZM76.2313 30.6595H76.5283C76.8426 30.6595 77.0973 30.4027 77.0973 30.086C77.0973 29.7692 76.8426 29.5124 76.5283 29.5124H76.2313C75.9171 29.5124 75.6624 29.7692 75.6624 30.086C75.6624 30.4027 75.9171 30.6595 76.2313 30.6595ZM89.7386 28.0511H76.2313C75.9171 28.0511 75.6624 27.7943 75.6624 27.4775V14.4359C75.6624 14.1191 75.9171 13.8623 76.2313 13.8623H89.7386C90.0528 13.8623 90.3075 14.1191 90.3075 14.4359V27.4775C90.3075 27.7943 90.0528 28.0511 89.7386 28.0511ZM89.1696 26.904H76.8003V15.0094H89.1696V26.904Z" fill="white"/>
<path d="M38.204 63.6H32.276V64.2H34.916V72H35.564V64.2H38.204V63.6ZM41.0263 65.868C39.1903 65.868 37.9183 67.236 37.9183 69C37.9183 70.812 39.2263 72.132 41.0743 72.132C42.2623 72.132 43.1983 71.592 43.6903 70.776L43.1623 70.464C42.8143 71.1 42.0703 71.556 41.0863 71.556C39.7183 71.556 38.6863 70.668 38.5423 69.312H43.9783C43.9783 69.216 43.9903 69.12 43.9903 69.024C43.9903 67.38 42.8503 65.868 41.0263 65.868ZM41.0263 66.444C42.2023 66.444 43.2343 67.26 43.3663 68.724H38.5423C38.6623 67.392 39.6583 66.444 41.0263 66.444ZM48.5728 65.868C47.4088 65.868 46.4848 66.468 45.9928 67.392V66H45.3928V74.4H45.9928V70.608C46.4848 71.532 47.4088 72.132 48.5728 72.132C50.2888 72.132 51.6808 70.776 51.6808 69C51.6808 67.224 50.2888 65.868 48.5728 65.868ZM48.5368 71.556C47.1088 71.556 45.9928 70.428 45.9928 69C45.9928 67.572 47.1088 66.444 48.5368 66.444C49.9648 66.444 51.0807 67.572 51.0807 69C51.0807 70.428 49.9648 71.556 48.5368 71.556ZM58.9231 66H58.2031L56.0191 69.444L53.8351 66H53.1271V72H53.7271V66.888L55.9831 70.452H56.0671L58.3111 66.912V72H58.9231V66ZM61.0678 64.548C61.3318 64.548 61.5478 64.332 61.5478 64.068C61.5478 63.816 61.3318 63.6 61.0678 63.6C60.8038 63.6 60.5878 63.816 60.5878 64.068C60.5878 64.332 60.8038 64.548 61.0678 64.548ZM60.7678 72H61.3678V66H60.7678V72ZM67.561 66V68.712H63.817V66H63.217V72H63.817V69.288H67.561V72H68.173V66H67.561ZM75.3056 66V67.356C74.8016 66.456 73.8776 65.868 72.7256 65.868C71.0216 65.868 69.6176 67.224 69.6176 69C69.6176 70.776 71.0216 72.132 72.7256 72.132C73.8776 72.132 74.8016 71.544 75.3056 70.644V72H75.9176V66H75.3056ZM72.7736 71.556C71.3456 71.556 70.2296 70.428 70.2296 69C70.2296 67.572 71.3456 66.444 72.7736 66.444C74.2016 66.444 75.3056 67.572 75.3056 69C75.3056 70.428 74.2016 71.556 72.7736 71.556ZM82.6319 66H78.4079V69.48C78.4079 71.028 77.9159 71.52 76.9919 71.436V72C78.1199 72.084 79.0079 71.58 79.0079 69.48V66.588H82.0319V72H82.6319V66ZM88.9028 66L85.0748 70.956V66H84.4748V72H85.0028L88.8188 67.044V72H89.4308V66H88.9028ZM99.5346 63.6L97.2066 69.036L94.6146 63.6H93.9546L96.9066 69.756L96.7626 70.092C96.3306 71.1 95.7426 71.508 94.8426 71.412V72C95.9826 72.084 96.8106 71.544 97.3986 70.164L100.195 63.6H99.5346ZM105.512 72L102.164 68.88L105.392 66H104.552L101.516 68.724V66H100.916V72H101.516V69.048L104.696 72H105.512ZM109.897 65.868C108.733 65.868 107.809 66.468 107.317 67.392V66H106.717V74.4H107.317V70.608C107.809 71.532 108.733 72.132 109.897 72.132C111.613 72.132 113.005 70.776 113.005 69C113.005 67.224 111.613 65.868 109.897 65.868ZM109.861 71.556C108.433 71.556 107.317 70.428 107.317 69C107.317 67.572 108.433 66.444 109.861 66.444C111.289 66.444 112.405 67.572 112.405 69C112.405 70.428 111.289 71.556 109.861 71.556ZM119.731 66V67.356C119.227 66.456 118.303 65.868 117.151 65.868C115.447 65.868 114.043 67.224 114.043 69C114.043 70.776 115.447 72.132 117.151 72.132C118.303 72.132 119.227 71.544 119.731 70.644V72H120.343V66H119.731ZM117.199 71.556C115.771 71.556 114.655 70.428 114.655 69C114.655 67.572 115.771 66.444 117.199 66.444C118.627 66.444 119.731 67.572 119.731 69C119.731 70.428 118.627 71.556 117.199 71.556ZM121.406 65.076C121.646 65.076 121.838 64.884 121.838 64.644C121.838 64.392 121.646 64.2 121.406 64.2C121.154 64.2 120.962 64.392 120.962 64.644C120.962 64.884 121.154 65.076 121.406 65.076ZM123.566 65.076C123.806 65.076 123.998 64.884 123.998 64.644C123.998 64.392 123.806 64.2 123.566 64.2C123.314 64.2 123.122 64.392 123.122 64.644C123.122 64.884 123.314 65.076 123.566 65.076ZM122.186 72H122.786V66H122.186V72ZM128.979 66V68.712H125.235V66H124.635V72H125.235V69.288H128.979V72H129.591V66H128.979ZM135.872 66L132.044 70.956V66H131.444V72H131.972L135.788 67.044V72H136.4V66H135.872Z" fill="white"/>
</svg>
