<svg width="170" height="85" viewBox="0 0 170 85" fill="none" xmlns="http://www.w3.org/2000/svg">
<rect width="170" height="85" rx="10" fill="#C5D5E6"/>
<circle opacity="0.8" cx="42.5" cy="32.5" r="12.5" fill="white"/>
<circle opacity="0.7" cx="58.5" cy="32.5" r="12.5" fill="white"/>
<path fill-rule="evenodd" clip-rule="evenodd" d="M126.146 34.404C126.118 37.367 123.462 39.279 119.375 39.279C117.632 39.261 115.953 38.918 115.043 38.519L115.59 35.326L116.091 35.554C117.368 36.086 118.195 36.301 119.752 36.301C120.869 36.301 122.065 35.863 122.077 34.908C122.084 34.283 121.576 33.838 120.061 33.138C118.585 32.455 116.631 31.311 116.656 29.262C116.677 26.489 119.385 24.554 123.227 24.554C124.733 24.554 125.94 24.864 126.71 25.153L126.184 28.245L125.833 28.08C125.117 27.792 124.195 27.514 122.923 27.534C121.401 27.534 120.695 28.168 120.695 28.761C120.687 29.429 121.519 29.869 122.879 30.531C125.126 31.546 126.163 32.783 126.146 34.404ZM133.684 24.814H136.688L139.834 39.072H136.227C136.227 39.072 135.869 37.433 135.753 36.935C135.454 36.935 134.202 36.9333 133.023 36.9318C131.975 36.9303 130.984 36.929 130.774 36.929C130.623 37.314 129.957 39.072 129.957 39.072H125.874L131.647 25.998C132.057 25.068 132.751 24.814 133.684 24.814ZM133.442 30.023C133.442 30.023 132.213 33.191 131.893 34.01H135.123L134.222 29.891L133.96 28.661C133.862 28.9234 133.731 29.2639 133.625 29.539L133.625 29.5398L133.625 29.5404C133.514 29.8275 133.431 30.0429 133.442 30.023ZM92.05 24.676L92 24.962C96.691 26.099 99.795 28.842 101.083 32.139L99.772 25.835C99.546 24.966 98.891 24.707 98.078 24.676H92.05ZM109.581 24.812L103.458 39.051L99.344 39.058L95.862 27.161C98.365 28.763 100.497 31.305 101.248 33.075L101.654 34.544L105.462 24.815L109.581 24.812ZM115.043 24.8H111.153L108.722 39.066H112.61L115.043 24.8Z" fill="white"/>
<path d="M23.744 72L19.376 67.68L23.624 63.6H22.772L18.68 67.512V63.6H18.044V72H18.68V67.86L22.892 72H23.744ZM29.5321 66V67.356C29.0281 66.456 28.1041 65.868 26.9521 65.868C25.2481 65.868 23.8441 67.224 23.8441 69C23.8441 70.776 25.2481 72.132 26.9521 72.132C28.1041 72.132 29.0281 71.544 29.5321 70.644V72H30.1441V66H29.5321ZM27.0001 71.556C25.5721 71.556 24.4561 70.428 24.4561 69C24.4561 67.572 25.5721 66.444 27.0001 66.444C28.4281 66.444 29.5321 67.572 29.5321 69C29.5321 70.428 28.4281 71.556 27.0001 71.556ZM35.1665 65.868C34.0025 65.868 33.0785 66.468 32.5865 67.392V66H31.9865V74.4H32.5865V70.608C33.0785 71.532 34.0025 72.132 35.1665 72.132C36.8825 72.132 38.2745 70.776 38.2745 69C38.2745 67.224 36.8825 65.868 35.1665 65.868ZM35.1305 71.556C33.7025 71.556 32.5865 70.428 32.5865 69C32.5865 67.572 33.7025 66.444 35.1305 66.444C36.5585 66.444 37.6745 67.572 37.6745 69C37.6745 70.428 36.5585 71.556 35.1305 71.556ZM43.6865 66H38.7185V66.588H40.9025V72H41.5025V66.588H43.6865V66ZM49.8173 66V67.356C49.3133 66.456 48.3893 65.868 47.2373 65.868C45.5333 65.868 44.1293 67.224 44.1293 69C44.1293 70.776 45.5333 72.132 47.2373 72.132C48.3893 72.132 49.3133 71.544 49.8173 70.644V72H50.4293V66H49.8173ZM47.2853 71.556C45.8573 71.556 44.7413 70.428 44.7413 69C44.7413 67.572 45.8573 66.444 47.2853 66.444C48.7133 66.444 49.8173 67.572 49.8173 69C49.8173 70.428 48.7133 71.556 47.2853 71.556ZM57.8349 72H58.5069L61.6389 63.6H60.9549L58.1709 71.172L55.3989 63.6H54.7029L57.8349 72ZM62.8021 64.548C63.0661 64.548 63.2821 64.332 63.2821 64.068C63.2821 63.816 63.0661 63.6 62.8021 63.6C62.5381 63.6 62.3221 63.816 62.3221 64.068C62.3221 64.332 62.5381 64.548 62.8021 64.548ZM62.5021 72H63.1021V66H62.5021V72ZM65.3593 67.572C65.3593 66.852 66.0193 66.444 66.7993 66.444C67.4593 66.444 68.0833 66.732 68.3353 67.356L68.8393 67.068C68.5153 66.336 67.7713 65.868 66.7993 65.868C65.5753 65.868 64.7593 66.624 64.7593 67.572C64.7593 69.732 68.3953 68.796 68.3953 70.428C68.3953 71.184 67.6873 71.556 66.8473 71.556C65.9473 71.556 65.2993 71.148 65.0833 70.5L64.5673 70.8C64.8553 71.568 65.6473 72.132 66.8473 72.132C68.1313 72.132 68.9953 71.412 68.9953 70.428C68.9953 68.232 65.3593 69.18 65.3593 67.572ZM75.5517 66V67.356C75.0477 66.456 74.1237 65.868 72.9717 65.868C71.2677 65.868 69.8637 67.224 69.8637 69C69.8637 70.776 71.2677 72.132 72.9717 72.132C74.1237 72.132 75.0477 71.544 75.5517 70.644V72H76.1637V66H75.5517ZM73.0197 71.556C71.5917 71.556 70.4757 70.428 70.4757 69C70.4757 67.572 71.5917 66.444 73.0197 66.444C74.4477 66.444 75.5517 67.572 75.5517 69C75.5517 70.428 74.4477 71.556 73.0197 71.556ZM78.078 73.2L82.878 62.4H82.398L77.598 73.2H78.078ZM92.0502 63.6H91.2462L88.2462 68.568L85.2462 63.6H84.4542V72H85.0902V64.536L88.1982 69.696H88.3062L91.4142 64.536V72H92.0502V63.6ZM99.2938 66V67.356C98.7898 66.456 97.8658 65.868 96.7138 65.868C95.0098 65.868 93.6058 67.224 93.6058 69C93.6058 70.776 95.0098 72.132 96.7138 72.132C97.8658 72.132 98.7898 71.544 99.2938 70.644V72H99.9058V66H99.2938ZM96.7618 71.556C95.3338 71.556 94.2178 70.428 94.2178 69C94.2178 67.572 95.3338 66.444 96.7618 66.444C98.1898 66.444 99.2938 67.572 99.2938 69C99.2938 70.428 98.1898 71.556 96.7618 71.556ZM102.156 67.572C102.156 66.852 102.816 66.444 103.596 66.444C104.256 66.444 104.88 66.732 105.132 67.356L105.636 67.068C105.312 66.336 104.568 65.868 103.596 65.868C102.372 65.868 101.556 66.624 101.556 67.572C101.556 69.732 105.192 68.796 105.192 70.428C105.192 71.184 104.484 71.556 103.644 71.556C102.744 71.556 102.096 71.148 101.88 70.5L101.364 70.8C101.652 71.568 102.444 72.132 103.644 72.132C104.928 72.132 105.792 71.412 105.792 70.428C105.792 68.232 102.156 69.18 102.156 67.572ZM110.082 66.588V66H108.294V64.32L107.682 64.5V66H106.362V66.588H107.682V70.488C107.682 71.856 108.51 72.24 110.082 72V71.46C108.858 71.568 108.294 71.544 108.294 70.488V66.588H110.082ZM113.858 65.868C112.022 65.868 110.75 67.236 110.75 69C110.75 70.812 112.058 72.132 113.906 72.132C115.094 72.132 116.03 71.592 116.522 70.776L115.994 70.464C115.646 71.1 114.902 71.556 113.918 71.556C112.55 71.556 111.518 70.668 111.374 69.312H116.81C116.81 69.216 116.822 69.12 116.822 69.024C116.822 67.38 115.682 65.868 113.858 65.868ZM113.858 66.444C115.034 66.444 116.066 67.26 116.198 68.724H111.374C111.494 67.392 112.49 66.444 113.858 66.444ZM118.825 67.176V66H118.225V72H118.825V68.664C118.825 67.128 119.797 66.492 120.829 66.492V65.916C120.013 65.916 119.233 66.228 118.825 67.176ZM126.053 72.132C127.625 72.132 128.993 71.316 129.677 70.08L129.113 69.756C128.561 70.812 127.385 71.52 126.053 71.52C123.845 71.52 122.321 69.864 122.321 67.8C122.321 65.736 123.845 64.08 126.053 64.08C127.373 64.08 128.537 64.776 129.089 65.808L129.653 65.484C128.957 64.26 127.601 63.468 126.053 63.468C123.497 63.468 121.685 65.4 121.685 67.8C121.685 70.2 123.497 72.132 126.053 72.132ZM136.278 66V67.356C135.774 66.456 134.85 65.868 133.698 65.868C131.994 65.868 130.59 67.224 130.59 69C130.59 70.776 131.994 72.132 133.698 72.132C134.85 72.132 135.774 71.544 136.278 70.644V72H136.89V66H136.278ZM133.746 71.556C132.318 71.556 131.202 70.428 131.202 69C131.202 67.572 132.318 66.444 133.746 66.444C135.174 66.444 136.278 67.572 136.278 69C136.278 70.428 135.174 71.556 133.746 71.556ZM139.333 67.176V66H138.733V72H139.333V68.664C139.333 67.128 140.305 66.492 141.337 66.492V65.916C140.521 65.916 139.741 66.228 139.333 67.176ZM147.482 63.6V67.392C146.99 66.468 146.066 65.868 144.902 65.868C143.186 65.868 141.794 67.224 141.794 69C141.794 70.776 143.186 72.132 144.902 72.132C146.066 72.132 146.99 71.532 147.482 70.608V72H148.082V63.6H147.482ZM144.938 71.556C143.51 71.556 142.394 70.428 142.394 69C142.394 67.572 143.51 66.444 144.938 66.444C146.366 66.444 147.482 67.572 147.482 69C147.482 70.428 146.366 71.556 144.938 71.556Z" fill="white"/>
</svg>
