<svg width="170" height="85" viewBox="0 0 170 85" fill="none" xmlns="http://www.w3.org/2000/svg">
<rect width="170" height="85" rx="10" fill="#C5D5E6"/>
<path d="M55.832 72H56.6L58.964 64.428L61.316 72H62.084L64.52 63.6H63.848L61.688 71.148L59.336 63.6H58.58L56.24 71.148L54.068 63.6H53.396L55.832 72ZM67.8271 65.868C65.9911 65.868 64.7191 67.236 64.7191 69C64.7191 70.812 66.0271 72.132 67.8751 72.132C69.0631 72.132 69.9991 71.592 70.4911 70.776L69.9631 70.464C69.6151 71.1 68.8711 71.556 67.8871 71.556C66.5191 71.556 65.4871 70.668 65.3431 69.312H70.7791C70.7791 69.216 70.7911 69.12 70.7911 69.024C70.7911 67.38 69.6511 65.868 67.8271 65.868ZM67.8271 66.444C69.0031 66.444 70.0351 67.26 70.1671 68.724H65.3431C65.4631 67.392 66.4591 66.444 67.8271 66.444ZM75.3735 65.868C74.2095 65.868 73.2855 66.468 72.7935 67.392V63.6H72.1935V72H72.7935V70.608C73.2855 71.532 74.2095 72.132 75.3735 72.132C77.0895 72.132 78.4815 70.776 78.4815 69C78.4815 67.224 77.0895 65.868 75.3735 65.868ZM75.3375 71.556C73.9095 71.556 72.7935 70.428 72.7935 69C72.7935 67.572 73.9095 66.444 75.3375 66.444C76.7655 66.444 77.8815 67.572 77.8815 69C77.8815 70.428 76.7655 71.556 75.3375 71.556ZM87.6439 63.6H86.8399L83.8399 68.568L80.8399 63.6H80.0479V72H80.6839V64.536L83.7919 69.696H83.8999L87.0079 64.536V72H87.6439V63.6ZM92.3556 72.132C94.0956 72.132 95.4996 70.776 95.4996 69C95.4996 67.224 94.0956 65.868 92.3556 65.868C90.6036 65.868 89.1996 67.224 89.1996 69C89.1996 70.776 90.6036 72.132 92.3556 72.132ZM92.3556 71.556C90.9276 71.556 89.8116 70.428 89.8116 69C89.8116 67.572 90.9276 66.444 92.3556 66.444C93.7836 66.444 94.8876 67.572 94.8876 69C94.8876 70.428 93.7836 71.556 92.3556 71.556ZM99.6915 65.868C98.7675 65.868 97.9995 66.252 97.5435 67.14V66H96.9435V72H97.5435V68.832C97.5435 67.212 98.4675 66.444 99.6435 66.444C100.772 66.444 101.408 67.164 101.408 68.268V72H102.02V68.268C102.02 66.816 101.12 65.868 99.6915 65.868ZM106.417 65.868C104.581 65.868 103.309 67.236 103.309 69C103.309 70.812 104.617 72.132 106.465 72.132C107.653 72.132 108.589 71.592 109.081 70.776L108.553 70.464C108.205 71.1 107.461 71.556 106.477 71.556C105.109 71.556 104.077 70.668 103.933 69.312H109.369C109.369 69.216 109.381 69.12 109.381 69.024C109.381 67.38 108.241 65.868 106.417 65.868ZM106.417 66.444C107.593 66.444 108.625 67.26 108.757 68.724H103.933C104.053 67.392 105.049 66.444 106.417 66.444ZM114.941 66L112.853 71.34L110.429 66H109.781L112.541 72.108L112.409 72.432C112.037 73.308 111.425 73.908 110.621 73.836V74.4C111.653 74.484 112.541 73.704 112.997 72.552L115.589 66H114.941Z" fill="white"/>
<path fill-rule="evenodd" clip-rule="evenodd" d="M120.794 39.3296L118.68 36.9136L116.237 39.1664L112.112 34.576L113.259 33.5664L110.371 30.3328L111.525 29.3216L108.594 26.0912L113.168 21.9728L114.621 23.5632L117.074 21.3744L118.523 22.8768L119.49 22.0112C119.274 21.8864 119.058 21.7712 118.838 21.6672C117.445 20.9856 115.88 20.6016 114.232 20.6016C108.445 20.6016 103.723 25.3216 103.723 31.1104C103.723 36.8976 108.445 41.6176 114.232 41.6176C116.112 41.6176 117.883 41.12 119.411 40.248C119.915 39.9632 120.374 39.6544 120.794 39.3296ZM62.6048 29.5872C62.9664 29.3952 63.5776 29.144 64.2256 29.144C65.712 29.144 66.5152 30.1744 66.5152 32.0896C66.5152 34.3328 65.4368 35.4256 63.6976 35.4256C63.0608 35.4256 62.0784 35.2208 61.3584 34.8384V26.4688L62.6048 26.1696V29.5872ZM57.8464 29.144C56.048 29.144 55.1248 30.4608 55.1248 32.2848C55.1248 34.1808 55.9536 35.4272 57.9664 35.4272C58.8288 35.4272 59.5488 35.1872 60.088 34.872V33.9648C59.4288 34.3568 58.8288 34.5872 58.1824 34.5872C56.9488 34.5872 56.36 33.9536 56.36 32.512H60.2672V32.072C60.2688 30.1136 59.3456 29.144 57.8464 29.144ZM56.384 31.7072C56.5152 30.5104 57.08 29.9456 57.8112 29.9456C58.4592 29.9456 59.0704 30.4464 59.1296 31.7072H56.384ZM63.6976 34.5856C63.3968 34.5856 62.9792 34.5632 62.5952 34.3952V30.4736C63.0752 30.2096 63.424 30.0784 63.9008 30.0784C64.704 30.0784 65.2576 30.5712 65.2576 32.0912C65.2576 34.0352 64.5856 34.5856 63.6976 34.5856ZM89.0464 35.2816V30.9424C89.0464 29.7072 88.5056 29.144 87.0688 29.1424C85.6896 29.1424 84.5504 29.7056 84.0112 30.0288V35.28H85.256V30.5328C85.6272 30.3168 86.24 30.1008 86.7184 30.1008C87.3344 30.1008 87.8 30.2688 87.8 31.216V35.2816H89.0464ZM74.5984 26.7808H76.0848V35.2816H74.7904V29.1168H74.6832L72.2368 35.2816H71.4704L69.024 29.2624H68.9168V35.2816H67.8384V26.7808H69.288L71.9744 33.4816H72.0352L74.5984 26.7808ZM77.4032 32.2848C77.4032 30.1872 78.5552 29.144 80.1376 29.144C81.72 29.144 82.872 30.1856 82.872 32.2848C82.872 34.3344 81.7808 35.4272 80.1376 35.4272C78.496 35.4272 77.4032 34.3344 77.4032 32.2848ZM80.1376 34.5856C79.2864 34.5856 78.6624 33.9296 78.6624 32.2848C78.6624 30.6656 79.3472 29.9824 80.1376 29.9824C80.9536 29.9824 81.6128 30.6656 81.6128 32.2848C81.6128 33.9296 80.9888 34.5856 80.1376 34.5856ZM123.698 30.392L124.821 31.6416L123.573 32.7664L122.448 31.5168L123.698 30.392ZM101.253 29.3456H99.968L98.6064 33.7616H98.5344L97 29.3472H95.6816L97.9824 35.3456C97.6944 36.2336 97.192 36.88 96.376 36.88V37.8608C97.7536 37.8608 98.4848 36.9984 99.0848 35.3424L101.253 29.3456ZM92.8832 29.144C91.0832 29.144 90.1616 30.4608 90.1616 32.2848C90.1616 34.1808 90.9888 35.4272 93.0016 35.4272C93.864 35.4272 94.5808 35.1872 95.1216 34.872V33.9648C94.464 34.3568 93.864 34.5872 93.2176 34.5872C91.984 34.5872 91.3936 33.9536 91.3936 32.512H95.3024V32.072C95.3056 30.1136 94.3808 29.144 92.8832 29.144ZM92.848 29.9456C92.1168 29.9456 91.552 30.5104 91.4176 31.7072H94.1664C94.1072 30.4464 93.4928 29.9456 92.848 29.9456ZM121.968 34.7952L123.656 36.6704L121.781 38.3584L120.091 36.4832L121.968 34.7952ZM118.678 25.1552L116.99 23.28L115.115 24.968L116.803 26.8432L118.678 25.1552ZM113.027 23.928L115.277 26.4272L112.778 28.6768L110.528 26.1776L113.027 23.928ZM116.843 28.7376L118.531 30.6112L120.406 28.9232L118.715 27.0496L116.843 28.7376ZM120.85 27.8064L122.096 26.6816L123.219 27.9312L121.974 29.056L120.85 27.8064ZM54.776 26.7808H53.3728L52.1488 33.1232H52.064L50.3968 26.7808H49.3296L47.7712 33.1232H47.6864L46.344 26.7808H45L46.9424 35.2816H48.2384L49.8208 29.2976H49.9056L51.536 35.2816H52.832L54.776 26.7808ZM120.134 34.5696L118.443 32.6976L120.318 31.008L122.01 32.88L120.134 34.5696ZM120.502 22.968L119.253 24.0928L120.378 25.3424L121.626 24.2176L120.502 22.968ZM114.568 32.944L112.318 30.4448L114.818 28.192L117.067 30.6912L114.568 32.944ZM114.098 34.7648L116.346 37.264L118.845 35.0144L116.595 32.5152L114.098 34.7648Z" fill="white"/>
</svg>
